<svg width="512" height="512" viewBox="0 0 512 512" fill="none" xmlns="http://www.w3.org/2000/svg">
  <rect width="512" height="512" rx="28" fill="white"/>
  <rect x="20" y="20" width="472" height="472" rx="20" fill="#0f172a"/>

  <rect x="44" y="44" width="132" height="132" rx="12" fill="white"/>
  <rect x="56" y="56" width="108" height="108" rx="8" fill="#0f172a"/>
  <rect x="72" y="72" width="76" height="76" rx="6" fill="white"/>

  <rect x="336" y="44" width="132" height="132" rx="12" fill="white"/>
  <rect x="348" y="56" width="108" height="108" rx="8" fill="#0f172a"/>
  <rect x="364" y="72" width="76" height="76" rx="6" fill="white"/>

  <rect x="44" y="336" width="132" height="132" rx="12" fill="white"/>
  <rect x="56" y="348" width="108" height="108" rx="8" fill="#0f172a"/>
  <rect x="72" y="364" width="76" height="76" rx="6" fill="white"/>

  <rect x="224" y="224" width="28" height="28" fill="white"/>
  <rect x="264" y="224" width="28" height="28" fill="white"/>
  <rect x="304" y="224" width="28" height="28" fill="white"/>
  <rect x="344" y="224" width="28" height="28" fill="white"/>
  <rect x="384" y="224" width="28" height="28" fill="white"/>

  <rect x="224" y="264" width="28" height="28" fill="white"/>
  <rect x="304" y="264" width="28" height="28" fill="white"/>
  <rect x="384" y="264" width="28" height="28" fill="white"/>

  <rect x="224" y="304" width="28" height="28" fill="white"/>
  <rect x="264" y="304" width="28" height="28" fill="white"/>
  <rect x="344" y="304" width="28" height="28" fill="white"/>
  <rect x="384" y="304" width="28" height="28" fill="white"/>

  <rect x="224" y="344" width="28" height="28" fill="white"/>
  <rect x="264" y="344" width="28" height="28" fill="white"/>
  <rect x="304" y="344" width="28" height="28" fill="white"/>
  <rect x="344" y="344" width="28" height="28" fill="white"/>

  <text x="256" y="470" text-anchor="middle" fill="white" font-size="40" font-family="Arial, sans-serif" font-weight="700">QRIS</text>
</svg>
